<mxfile host="65bd71144e">
    <diagram name="Page-1" id="GM7C_vHVInvrcvmGLWA7">
        <mxGraphModel dx="2221" dy="2137" grid="1" gridSize="10" guides="1" tooltips="1" connect="1" arrows="1" fold="1" page="1" pageScale="1" pageWidth="827" pageHeight="1169" math="0" shadow="0">
            <root>
                <mxCell id="0"/>
                <mxCell id="1" parent="0"/>
                <mxCell id="RYgiZswWqTKI0d0rBJ_1-2" value="Utilisateur" style="swimlane;startSize=20;horizontal=0;html=1;whiteSpace=wrap;" parent="1" vertex="1">
                    <mxGeometry x="20" y="-30" width="1060" height="330" as="geometry"/>
                </mxCell>
                <mxCell id="RYgiZswWqTKI0d0rBJ_1-1" value="" style="points=[[0.145,0.145,0],[0.5,0,0],[0.855,0.145,0],[1,0.5,0],[0.855,0.855,0],[0.5,1,0],[0.145,0.855,0],[0,0.5,0]];shape=mxgraph.bpmn.event;html=1;verticalLabelPosition=bottom;labelBackgroundColor=#ffffff;verticalAlign=top;align=center;perimeter=ellipsePerimeter;outlineConnect=0;aspect=fixed;outline=standard;symbol=general;" parent="RYgiZswWqTKI0d0rBJ_1-2" vertex="1">
                    <mxGeometry x="40" y="160" width="50" height="50" as="geometry"/>
                </mxCell>
                <mxCell id="RYgiZswWqTKI0d0rBJ_1-13" value="Clique sur &quot;Se connecter&quot;" style="points=[[0.25,0,0],[0.5,0,0],[0.75,0,0],[1,0.25,0],[1,0.5,0],[1,0.75,0],[0.75,1,0],[0.5,1,0],[0.25,1,0],[0,0.75,0],[0,0.5,0],[0,0.25,0]];shape=mxgraph.bpmn.task;whiteSpace=wrap;rectStyle=rounded;size=10;html=1;container=1;expand=0;collapsible=0;taskMarker=send;" parent="RYgiZswWqTKI0d0rBJ_1-2" vertex="1">
                    <mxGeometry x="324" y="145" width="120" height="80" as="geometry"/>
                </mxCell>
                <mxCell id="osszu8AtkkXb-gIpXjJb-6" value="Reçoit la page compte" style="points=[[0.145,0.145,0],[0.5,0,0],[0.855,0.145,0],[1,0.5,0],[0.855,0.855,0],[0.5,1,0],[0.145,0.855,0],[0,0.5,0]];shape=mxgraph.bpmn.event;html=1;verticalLabelPosition=bottom;labelBackgroundColor=#ffffff;verticalAlign=top;align=center;perimeter=ellipsePerimeter;outlineConnect=0;aspect=fixed;outline=catching;symbol=message;" parent="RYgiZswWqTKI0d0rBJ_1-2" vertex="1">
                    <mxGeometry x="770" y="210" width="50" height="50" as="geometry"/>
                </mxCell>
                <mxCell id="osszu8AtkkXb-gIpXjJb-7" value="" style="points=[[0.145,0.145,0],[0.5,0,0],[0.855,0.145,0],[1,0.5,0],[0.855,0.855,0],[0.5,1,0],[0.145,0.855,0],[0,0.5,0]];shape=mxgraph.bpmn.event;html=1;verticalLabelPosition=bottom;labelBackgroundColor=#ffffff;verticalAlign=top;align=center;perimeter=ellipsePerimeter;outlineConnect=0;aspect=fixed;outline=end;symbol=terminate2;" parent="RYgiZswWqTKI0d0rBJ_1-2" vertex="1">
                    <mxGeometry x="890" y="210" width="50" height="50" as="geometry"/>
                </mxCell>
                <mxCell id="osszu8AtkkXb-gIpXjJb-11" style="edgeStyle=orthogonalEdgeStyle;rounded=0;orthogonalLoop=1;jettySize=auto;html=1;entryX=0;entryY=0.5;entryDx=0;entryDy=0;entryPerimeter=0;" parent="RYgiZswWqTKI0d0rBJ_1-2" source="osszu8AtkkXb-gIpXjJb-60" target="RYgiZswWqTKI0d0rBJ_1-13" edge="1">
                    <mxGeometry relative="1" as="geometry">
                        <mxPoint x="280" y="185" as="sourcePoint"/>
                    </mxGeometry>
                </mxCell>
                <mxCell id="osszu8AtkkXb-gIpXjJb-15" style="edgeStyle=orthogonalEdgeStyle;rounded=0;orthogonalLoop=1;jettySize=auto;html=1;entryX=0;entryY=0.5;entryDx=0;entryDy=0;entryPerimeter=0;" parent="RYgiZswWqTKI0d0rBJ_1-2" source="osszu8AtkkXb-gIpXjJb-6" target="osszu8AtkkXb-gIpXjJb-7" edge="1">
                    <mxGeometry relative="1" as="geometry"/>
                </mxCell>
                <mxCell id="7" style="edgeStyle=none;html=1;entryX=0;entryY=0.5;entryDx=0;entryDy=0;entryPerimeter=0;" edge="1" parent="RYgiZswWqTKI0d0rBJ_1-2" source="osszu8AtkkXb-gIpXjJb-39" target="osszu8AtkkXb-gIpXjJb-41">
                    <mxGeometry relative="1" as="geometry">
                        <Array as="points">
                            <mxPoint x="545" y="105"/>
                        </Array>
                    </mxGeometry>
                </mxCell>
                <mxCell id="8" style="edgeStyle=none;html=1;" edge="1" parent="RYgiZswWqTKI0d0rBJ_1-2" source="osszu8AtkkXb-gIpXjJb-39" target="osszu8AtkkXb-gIpXjJb-6">
                    <mxGeometry relative="1" as="geometry">
                        <Array as="points">
                            <mxPoint x="545" y="235"/>
                        </Array>
                    </mxGeometry>
                </mxCell>
                <mxCell id="osszu8AtkkXb-gIpXjJb-39" value="" style="points=[[0.25,0.25,0],[0.5,0,0],[0.75,0.25,0],[1,0.5,0],[0.75,0.75,0],[0.5,1,0],[0.25,0.75,0],[0,0.5,0]];shape=mxgraph.bpmn.gateway2;html=1;verticalLabelPosition=bottom;labelBackgroundColor=#ffffff;verticalAlign=top;align=center;perimeter=rhombusPerimeter;outlineConnect=0;outline=catching;symbol=multiple;" parent="RYgiZswWqTKI0d0rBJ_1-2" vertex="1">
                    <mxGeometry x="520" y="160" width="50" height="50" as="geometry"/>
                </mxCell>
                <mxCell id="6" style="edgeStyle=none;html=1;entryX=0.5;entryY=0;entryDx=0;entryDy=0;entryPerimeter=0;" edge="1" parent="RYgiZswWqTKI0d0rBJ_1-2" source="osszu8AtkkXb-gIpXjJb-41" target="osszu8AtkkXb-gIpXjJb-60">
                    <mxGeometry relative="1" as="geometry">
                        <Array as="points">
                            <mxPoint x="645" y="60"/>
                            <mxPoint x="225" y="60"/>
                        </Array>
                    </mxGeometry>
                </mxCell>
                <mxCell id="osszu8AtkkXb-gIpXjJb-41" value="Reçoit l'erreur de connexion" style="points=[[0.145,0.145,0],[0.5,0,0],[0.855,0.145,0],[1,0.5,0],[0.855,0.855,0],[0.5,1,0],[0.145,0.855,0],[0,0.5,0]];shape=mxgraph.bpmn.event;html=1;verticalLabelPosition=bottom;labelBackgroundColor=#ffffff;verticalAlign=top;align=center;perimeter=ellipsePerimeter;outlineConnect=0;aspect=fixed;outline=catching;symbol=message;" parent="RYgiZswWqTKI0d0rBJ_1-2" vertex="1">
                    <mxGeometry x="620" y="80" width="50" height="50" as="geometry"/>
                </mxCell>
                <mxCell id="osszu8AtkkXb-gIpXjJb-45" style="edgeStyle=orthogonalEdgeStyle;rounded=0;orthogonalLoop=1;jettySize=auto;html=1;entryX=0;entryY=0.5;entryDx=0;entryDy=0;entryPerimeter=0;" parent="RYgiZswWqTKI0d0rBJ_1-2" source="RYgiZswWqTKI0d0rBJ_1-13" target="osszu8AtkkXb-gIpXjJb-39" edge="1">
                    <mxGeometry relative="1" as="geometry"/>
                </mxCell>
                <mxCell id="osszu8AtkkXb-gIpXjJb-50" style="edgeStyle=orthogonalEdgeStyle;rounded=0;orthogonalLoop=1;jettySize=auto;html=1;" parent="RYgiZswWqTKI0d0rBJ_1-2" source="RYgiZswWqTKI0d0rBJ_1-1" target="osszu8AtkkXb-gIpXjJb-60" edge="1">
                    <mxGeometry relative="1" as="geometry">
                        <mxPoint x="160" y="185" as="targetPoint"/>
                    </mxGeometry>
                </mxCell>
                <mxCell id="osszu8AtkkXb-gIpXjJb-60" value="Renseigne ses informations : mail et mot de passe" style="points=[[0.25,0,0],[0.5,0,0],[0.75,0,0],[1,0.25,0],[1,0.5,0],[1,0.75,0],[0.75,1,0],[0.5,1,0],[0.25,1,0],[0,0.75,0],[0,0.5,0],[0,0.25,0]];shape=mxgraph.bpmn.task;whiteSpace=wrap;rectStyle=rounded;size=10;html=1;container=1;expand=0;collapsible=0;taskMarker=manual;" parent="RYgiZswWqTKI0d0rBJ_1-2" vertex="1">
                    <mxGeometry x="165" y="145" width="120" height="80" as="geometry"/>
                </mxCell>
                <mxCell id="RYgiZswWqTKI0d0rBJ_1-4" value="Application client" style="swimlane;html=1;startSize=20;fontStyle=0;collapsible=0;horizontal=0;swimlaneLine=1;swimlaneFillColor=none;strokeWidth=2;whiteSpace=wrap;fillColor=none;strokeColor=default;" parent="1" vertex="1">
                    <mxGeometry x="20" y="345" width="1060" height="265" as="geometry"/>
                </mxCell>
                <mxCell id="osszu8AtkkXb-gIpXjJb-59" style="edgeStyle=orthogonalEdgeStyle;rounded=0;orthogonalLoop=1;jettySize=auto;html=1;entryX=0;entryY=0.5;entryDx=0;entryDy=0;entryPerimeter=0;" parent="RYgiZswWqTKI0d0rBJ_1-4" source="RYgiZswWqTKI0d0rBJ_1-8" target="RYgiZswWqTKI0d0rBJ_1-14" edge="1">
                    <mxGeometry relative="1" as="geometry">
                        <mxPoint x="130" y="115" as="targetPoint"/>
                    </mxGeometry>
                </mxCell>
                <mxCell id="RYgiZswWqTKI0d0rBJ_1-8" value="Reçoit le mail&lt;br&gt;et mot de passe" style="points=[[0.145,0.145,0],[0.5,0,0],[0.855,0.145,0],[1,0.5,0],[0.855,0.855,0],[0.5,1,0],[0.145,0.855,0],[0,0.5,0]];shape=mxgraph.bpmn.event;html=1;verticalLabelPosition=bottom;labelBackgroundColor=#ffffff;verticalAlign=top;align=center;perimeter=ellipsePerimeter;outlineConnect=0;aspect=fixed;outline=standard;symbol=message;" parent="RYgiZswWqTKI0d0rBJ_1-4" vertex="1">
                    <mxGeometry x="40" y="90" width="50" height="50" as="geometry"/>
                </mxCell>
                <mxCell id="RYgiZswWqTKI0d0rBJ_1-14" value="Demande du compte" style="points=[[0.25,0,0],[0.5,0,0],[0.75,0,0],[1,0.25,0],[1,0.5,0],[1,0.75,0],[0.75,1,0],[0.5,1,0],[0.25,1,0],[0,0.75,0],[0,0.5,0],[0,0.25,0]];shape=mxgraph.bpmn.task;whiteSpace=wrap;rectStyle=rounded;size=10;html=1;container=1;expand=0;collapsible=0;taskMarker=send;" parent="RYgiZswWqTKI0d0rBJ_1-4" vertex="1">
                    <mxGeometry x="270" y="75" width="120" height="80" as="geometry"/>
                </mxCell>
                <mxCell id="osszu8AtkkXb-gIpXjJb-3" value="Reçoit les informations&lt;br&gt;du compte" style="points=[[0.145,0.145,0],[0.5,0,0],[0.855,0.145,0],[1,0.5,0],[0.855,0.855,0],[0.5,1,0],[0.145,0.855,0],[0,0.5,0]];shape=mxgraph.bpmn.event;html=1;verticalLabelPosition=bottom;labelBackgroundColor=#ffffff;verticalAlign=top;align=center;perimeter=ellipsePerimeter;outlineConnect=0;aspect=fixed;outline=catching;symbol=message;" parent="RYgiZswWqTKI0d0rBJ_1-4" vertex="1">
                    <mxGeometry x="610" y="155" width="50" height="50" as="geometry"/>
                </mxCell>
                <mxCell id="osszu8AtkkXb-gIpXjJb-4" value="Renvoie sur la page de compte" style="points=[[0.25,0,0],[0.5,0,0],[0.75,0,0],[1,0.25,0],[1,0.5,0],[1,0.75,0],[0.75,1,0],[0.5,1,0],[0.25,1,0],[0,0.75,0],[0,0.5,0],[0,0.25,0]];shape=mxgraph.bpmn.task;whiteSpace=wrap;rectStyle=rounded;size=10;html=1;container=1;expand=0;collapsible=0;taskMarker=send;" parent="RYgiZswWqTKI0d0rBJ_1-4" vertex="1">
                    <mxGeometry x="850" y="140" width="120" height="80" as="geometry"/>
                </mxCell>
                <mxCell id="9" style="edgeStyle=none;html=1;entryX=0;entryY=0.5;entryDx=0;entryDy=0;entryPerimeter=0;" edge="1" parent="RYgiZswWqTKI0d0rBJ_1-4" source="osszu8AtkkXb-gIpXjJb-23" target="osszu8AtkkXb-gIpXjJb-26">
                    <mxGeometry relative="1" as="geometry">
                        <Array as="points">
                            <mxPoint x="475" y="60"/>
                        </Array>
                    </mxGeometry>
                </mxCell>
                <mxCell id="10" style="edgeStyle=none;html=1;entryX=0;entryY=0.5;entryDx=0;entryDy=0;entryPerimeter=0;" edge="1" parent="RYgiZswWqTKI0d0rBJ_1-4" source="osszu8AtkkXb-gIpXjJb-23" target="osszu8AtkkXb-gIpXjJb-3">
                    <mxGeometry relative="1" as="geometry">
                        <Array as="points">
                            <mxPoint x="475" y="180"/>
                        </Array>
                    </mxGeometry>
                </mxCell>
                <mxCell id="osszu8AtkkXb-gIpXjJb-23" value="" style="points=[[0.25,0.25,0],[0.5,0,0],[0.75,0.25,0],[1,0.5,0],[0.75,0.75,0],[0.5,1,0],[0.25,0.75,0],[0,0.5,0]];shape=mxgraph.bpmn.gateway2;html=1;verticalLabelPosition=bottom;labelBackgroundColor=#ffffff;verticalAlign=top;align=center;perimeter=rhombusPerimeter;outlineConnect=0;outline=catching;symbol=multiple;" parent="RYgiZswWqTKI0d0rBJ_1-4" vertex="1">
                    <mxGeometry x="450" y="90" width="50" height="50" as="geometry"/>
                </mxCell>
                <mxCell id="osszu8AtkkXb-gIpXjJb-24" style="edgeStyle=orthogonalEdgeStyle;rounded=0;orthogonalLoop=1;jettySize=auto;html=1;entryX=0;entryY=0.5;entryDx=0;entryDy=0;entryPerimeter=0;" parent="RYgiZswWqTKI0d0rBJ_1-4" source="RYgiZswWqTKI0d0rBJ_1-14" target="osszu8AtkkXb-gIpXjJb-23" edge="1">
                    <mxGeometry relative="1" as="geometry"/>
                </mxCell>
                <mxCell id="osszu8AtkkXb-gIpXjJb-26" value="Reçoit l'erreur&lt;br&gt;de connexion" style="points=[[0.145,0.145,0],[0.5,0,0],[0.855,0.145,0],[1,0.5,0],[0.855,0.855,0],[0.5,1,0],[0.145,0.855,0],[0,0.5,0]];shape=mxgraph.bpmn.event;html=1;verticalLabelPosition=bottom;labelBackgroundColor=#ffffff;verticalAlign=top;align=center;perimeter=ellipsePerimeter;outlineConnect=0;aspect=fixed;outline=catching;symbol=message;" parent="RYgiZswWqTKI0d0rBJ_1-4" vertex="1">
                    <mxGeometry x="610" y="35" width="50" height="50" as="geometry"/>
                </mxCell>
                <mxCell id="osszu8AtkkXb-gIpXjJb-29" value="" style="points=[[0.145,0.145,0],[0.5,0,0],[0.855,0.145,0],[1,0.5,0],[0.855,0.855,0],[0.5,1,0],[0.145,0.855,0],[0,0.5,0]];shape=mxgraph.bpmn.event;html=1;verticalLabelPosition=bottom;labelBackgroundColor=#ffffff;verticalAlign=top;align=center;perimeter=ellipsePerimeter;outlineConnect=0;aspect=fixed;outline=end;symbol=terminate2;" parent="RYgiZswWqTKI0d0rBJ_1-4" vertex="1">
                    <mxGeometry x="970" y="35" width="50" height="50" as="geometry"/>
                </mxCell>
                <mxCell id="osszu8AtkkXb-gIpXjJb-31" value="" style="points=[[0.145,0.145,0],[0.5,0,0],[0.855,0.145,0],[1,0.5,0],[0.855,0.855,0],[0.5,1,0],[0.145,0.855,0],[0,0.5,0]];shape=mxgraph.bpmn.event;html=1;verticalLabelPosition=bottom;labelBackgroundColor=#ffffff;verticalAlign=top;align=center;perimeter=ellipsePerimeter;outlineConnect=0;aspect=fixed;outline=end;symbol=terminate2;" parent="RYgiZswWqTKI0d0rBJ_1-4" vertex="1">
                    <mxGeometry x="1000" y="155" width="50" height="50" as="geometry"/>
                </mxCell>
                <mxCell id="osszu8AtkkXb-gIpXjJb-32" style="edgeStyle=orthogonalEdgeStyle;rounded=0;orthogonalLoop=1;jettySize=auto;html=1;entryX=0;entryY=0.5;entryDx=0;entryDy=0;entryPerimeter=0;" parent="RYgiZswWqTKI0d0rBJ_1-4" source="osszu8AtkkXb-gIpXjJb-4" target="osszu8AtkkXb-gIpXjJb-31" edge="1">
                    <mxGeometry relative="1" as="geometry"/>
                </mxCell>
                <mxCell id="osszu8AtkkXb-gIpXjJb-35" value="Envoie une erreur de connexion" style="points=[[0.25,0,0],[0.5,0,0],[0.75,0,0],[1,0.25,0],[1,0.5,0],[1,0.75,0],[0.75,1,0],[0.5,1,0],[0.25,1,0],[0,0.75,0],[0,0.5,0],[0,0.25,0]];shape=mxgraph.bpmn.task;whiteSpace=wrap;rectStyle=rounded;size=10;html=1;container=1;expand=0;collapsible=0;taskMarker=send;" parent="RYgiZswWqTKI0d0rBJ_1-4" vertex="1">
                    <mxGeometry x="700" y="20" width="120" height="80" as="geometry"/>
                </mxCell>
                <mxCell id="osszu8AtkkXb-gIpXjJb-36" style="edgeStyle=orthogonalEdgeStyle;rounded=0;orthogonalLoop=1;jettySize=auto;html=1;entryX=0;entryY=0.5;entryDx=0;entryDy=0;entryPerimeter=0;" parent="RYgiZswWqTKI0d0rBJ_1-4" source="osszu8AtkkXb-gIpXjJb-26" target="osszu8AtkkXb-gIpXjJb-35" edge="1">
                    <mxGeometry relative="1" as="geometry"/>
                </mxCell>
                <mxCell id="osszu8AtkkXb-gIpXjJb-37" style="edgeStyle=orthogonalEdgeStyle;rounded=0;orthogonalLoop=1;jettySize=auto;html=1;entryX=0;entryY=0.5;entryDx=0;entryDy=0;entryPerimeter=0;" parent="RYgiZswWqTKI0d0rBJ_1-4" source="osszu8AtkkXb-gIpXjJb-35" target="osszu8AtkkXb-gIpXjJb-29" edge="1">
                    <mxGeometry relative="1" as="geometry"/>
                </mxCell>
                <mxCell id="osszu8AtkkXb-gIpXjJb-51" value="Mise en forme des données et changement de page" style="points=[[0.25,0,0],[0.5,0,0],[0.75,0,0],[1,0.25,0],[1,0.5,0],[1,0.75,0],[0.75,1,0],[0.5,1,0],[0.25,1,0],[0,0.75,0],[0,0.5,0],[0,0.25,0]];shape=mxgraph.bpmn.task;whiteSpace=wrap;rectStyle=rounded;size=10;html=1;container=1;expand=0;collapsible=0;taskMarker=service;" parent="RYgiZswWqTKI0d0rBJ_1-4" vertex="1">
                    <mxGeometry x="700" y="140" width="120" height="80" as="geometry"/>
                </mxCell>
                <mxCell id="osszu8AtkkXb-gIpXjJb-53" style="edgeStyle=orthogonalEdgeStyle;rounded=0;orthogonalLoop=1;jettySize=auto;html=1;entryX=0;entryY=0.5;entryDx=0;entryDy=0;entryPerimeter=0;" parent="RYgiZswWqTKI0d0rBJ_1-4" source="osszu8AtkkXb-gIpXjJb-3" target="osszu8AtkkXb-gIpXjJb-51" edge="1">
                    <mxGeometry relative="1" as="geometry"/>
                </mxCell>
                <mxCell id="osszu8AtkkXb-gIpXjJb-54" style="edgeStyle=orthogonalEdgeStyle;rounded=0;orthogonalLoop=1;jettySize=auto;html=1;entryX=0;entryY=0.5;entryDx=0;entryDy=0;entryPerimeter=0;" parent="RYgiZswWqTKI0d0rBJ_1-4" source="osszu8AtkkXb-gIpXjJb-51" target="osszu8AtkkXb-gIpXjJb-4" edge="1">
                    <mxGeometry relative="1" as="geometry"/>
                </mxCell>
                <mxCell id="RYgiZswWqTKI0d0rBJ_1-3" value="API Naolibre" style="swimlane;html=1;startSize=20;fontStyle=0;collapsible=0;horizontal=0;swimlaneLine=1;swimlaneFillColor=none;strokeWidth=2;whiteSpace=wrap;" parent="1" vertex="1">
                    <mxGeometry x="25" y="660" width="1055" height="210" as="geometry"/>
                </mxCell>
                <mxCell id="RYgiZswWqTKI0d0rBJ_1-15" value="Reçoit le mail et&amp;nbsp;&lt;br&gt;mot de passe&lt;br&gt;du compte" style="points=[[0.145,0.145,0],[0.5,0,0],[0.855,0.145,0],[1,0.5,0],[0.855,0.855,0],[0.5,1,0],[0.145,0.855,0],[0,0.5,0]];shape=mxgraph.bpmn.event;html=1;verticalLabelPosition=bottom;labelBackgroundColor=#ffffff;verticalAlign=top;align=center;perimeter=ellipsePerimeter;outlineConnect=0;aspect=fixed;outline=standard;symbol=message;" parent="RYgiZswWqTKI0d0rBJ_1-3" vertex="1">
                    <mxGeometry x="50" y="55" width="50" height="50" as="geometry"/>
                </mxCell>
                <mxCell id="12" style="edgeStyle=none;html=1;entryX=0;entryY=0.5;entryDx=0;entryDy=0;entryPerimeter=0;" edge="1" parent="RYgiZswWqTKI0d0rBJ_1-3" source="RYgiZswWqTKI0d0rBJ_1-16" target="osszu8AtkkXb-gIpXjJb-2">
                    <mxGeometry relative="1" as="geometry">
                        <Array as="points">
                            <mxPoint x="325" y="80"/>
                            <mxPoint x="325" y="155"/>
                        </Array>
                    </mxGeometry>
                </mxCell>
                <mxCell id="RYgiZswWqTKI0d0rBJ_1-16" value="Vérifie la présence de l'email avec le mot de passe correspondant" style="points=[[0.25,0,0],[0.5,0,0],[0.75,0,0],[1,0.25,0],[1,0.5,0],[1,0.75,0],[0.75,1,0],[0.5,1,0],[0.25,1,0],[0,0.75,0],[0,0.5,0],[0,0.25,0]];shape=mxgraph.bpmn.task;whiteSpace=wrap;rectStyle=rounded;size=10;html=1;container=1;expand=0;collapsible=0;taskMarker=service;" parent="RYgiZswWqTKI0d0rBJ_1-3" vertex="1">
                    <mxGeometry x="160" y="40" width="120" height="80" as="geometry"/>
                </mxCell>
                <mxCell id="5" style="edgeStyle=none;html=1;entryX=0.5;entryY=1;entryDx=0;entryDy=0;entryPerimeter=0;" parent="RYgiZswWqTKI0d0rBJ_1-3" source="osszu8AtkkXb-gIpXjJb-2" target="2" edge="1">
                    <mxGeometry relative="1" as="geometry">
                        <Array as="points">
                            <mxPoint x="890" y="155"/>
                        </Array>
                    </mxGeometry>
                </mxCell>
                <mxCell id="osszu8AtkkXb-gIpXjJb-2" value="Envoie les informations du compte" style="points=[[0.25,0,0],[0.5,0,0],[0.75,0,0],[1,0.25,0],[1,0.5,0],[1,0.75,0],[0.75,1,0],[0.5,1,0],[0.25,1,0],[0,0.75,0],[0,0.5,0],[0,0.25,0]];shape=mxgraph.bpmn.task;whiteSpace=wrap;rectStyle=rounded;size=10;html=1;container=1;expand=0;collapsible=0;taskMarker=send;" parent="RYgiZswWqTKI0d0rBJ_1-3" vertex="1">
                    <mxGeometry x="400" y="115" width="120" height="80" as="geometry"/>
                </mxCell>
                <mxCell id="osszu8AtkkXb-gIpXjJb-19" style="edgeStyle=orthogonalEdgeStyle;rounded=0;orthogonalLoop=1;jettySize=auto;html=1;entryX=0;entryY=0.5;entryDx=0;entryDy=0;entryPerimeter=0;" parent="RYgiZswWqTKI0d0rBJ_1-3" source="RYgiZswWqTKI0d0rBJ_1-15" target="RYgiZswWqTKI0d0rBJ_1-16" edge="1">
                    <mxGeometry relative="1" as="geometry"/>
                </mxCell>
                <mxCell id="osszu8AtkkXb-gIpXjJb-33" value="" style="points=[[0.145,0.145,0],[0.5,0,0],[0.855,0.145,0],[1,0.5,0],[0.855,0.855,0],[0.5,1,0],[0.145,0.855,0],[0,0.5,0]];shape=mxgraph.bpmn.event;html=1;verticalLabelPosition=bottom;labelBackgroundColor=#ffffff;verticalAlign=top;align=center;perimeter=ellipsePerimeter;outlineConnect=0;aspect=fixed;outline=end;symbol=terminate2;" parent="RYgiZswWqTKI0d0rBJ_1-3" vertex="1">
                    <mxGeometry x="975" y="80" width="50" height="50" as="geometry"/>
                </mxCell>
                <mxCell id="4" style="edgeStyle=none;html=1;entryX=0.5;entryY=0;entryDx=0;entryDy=0;entryPerimeter=0;" parent="RYgiZswWqTKI0d0rBJ_1-3" source="osszu8AtkkXb-gIpXjJb-55" target="2" edge="1">
                    <mxGeometry relative="1" as="geometry">
                        <Array as="points">
                            <mxPoint x="890" y="55"/>
                        </Array>
                    </mxGeometry>
                </mxCell>
                <mxCell id="osszu8AtkkXb-gIpXjJb-55" value="Envoie une erreur" style="points=[[0.25,0,0],[0.5,0,0],[0.75,0,0],[1,0.25,0],[1,0.5,0],[1,0.75,0],[0.75,1,0],[0.5,1,0],[0.25,1,0],[0,0.75,0],[0,0.5,0],[0,0.25,0]];shape=mxgraph.bpmn.task;whiteSpace=wrap;rectStyle=rounded;size=10;html=1;container=1;expand=0;collapsible=0;taskMarker=send;" parent="RYgiZswWqTKI0d0rBJ_1-3" vertex="1">
                    <mxGeometry x="360" y="15" width="120" height="80" as="geometry"/>
                </mxCell>
                <mxCell id="11" style="edgeStyle=none;html=1;entryX=-0.002;entryY=0.323;entryDx=0;entryDy=0;entryPerimeter=0;" edge="1" parent="RYgiZswWqTKI0d0rBJ_1-3" source="osszu8AtkkXb-gIpXjJb-1" target="osszu8AtkkXb-gIpXjJb-55">
                    <mxGeometry relative="1" as="geometry"/>
                </mxCell>
                <mxCell id="osszu8AtkkXb-gIpXjJb-1" value="Erreur de connexion" style="points=[[0.145,0.145,0],[0.5,0,0],[0.855,0.145,0],[1,0.5,0],[0.855,0.855,0],[0.5,1,0],[0.145,0.855,0],[0,0.5,0]];shape=mxgraph.bpmn.event;html=1;verticalLabelPosition=bottom;labelBackgroundColor=#ffffff;verticalAlign=top;align=center;perimeter=ellipsePerimeter;outlineConnect=0;aspect=fixed;outline=boundInt;symbol=error;spacingTop=-70;" parent="RYgiZswWqTKI0d0rBJ_1-3" vertex="1">
                    <mxGeometry x="250" y="15" width="50" height="50" as="geometry"/>
                </mxCell>
                <mxCell id="3" style="edgeStyle=none;html=1;" parent="RYgiZswWqTKI0d0rBJ_1-3" source="2" target="osszu8AtkkXb-gIpXjJb-33" edge="1">
                    <mxGeometry relative="1" as="geometry"/>
                </mxCell>
                <mxCell id="2" value="" style="points=[[0.25,0.25,0],[0.5,0,0],[0.75,0.25,0],[1,0.5,0],[0.75,0.75,0],[0.5,1,0],[0.25,0.75,0],[0,0.5,0]];shape=mxgraph.bpmn.gateway2;html=1;verticalLabelPosition=bottom;labelBackgroundColor=#ffffff;verticalAlign=top;align=center;perimeter=rhombusPerimeter;outlineConnect=0;outline=none;symbol=none;" parent="RYgiZswWqTKI0d0rBJ_1-3" vertex="1">
                    <mxGeometry x="865" y="80" width="50" height="50" as="geometry"/>
                </mxCell>
                <mxCell id="13" style="edgeStyle=none;html=1;entryX=0.5;entryY=0;entryDx=0;entryDy=0;entryPerimeter=0;dashed=1;" edge="1" parent="1" source="RYgiZswWqTKI0d0rBJ_1-14" target="RYgiZswWqTKI0d0rBJ_1-15">
                    <mxGeometry relative="1" as="geometry">
                        <Array as="points">
                            <mxPoint x="350" y="630"/>
                            <mxPoint x="100" y="630"/>
                        </Array>
                    </mxGeometry>
                </mxCell>
                <mxCell id="14" style="edgeStyle=none;html=1;entryX=0.5;entryY=0;entryDx=0;entryDy=0;entryPerimeter=0;dashed=1;" edge="1" parent="1" source="osszu8AtkkXb-gIpXjJb-55" target="osszu8AtkkXb-gIpXjJb-26">
                    <mxGeometry relative="1" as="geometry">
                        <Array as="points">
                            <mxPoint x="445" y="360"/>
                            <mxPoint x="655" y="360"/>
                        </Array>
                    </mxGeometry>
                </mxCell>
                <mxCell id="15" style="edgeStyle=none;html=1;entryX=0.5;entryY=1;entryDx=0;entryDy=0;entryPerimeter=0;dashed=1;exitX=0.817;exitY=-0.012;exitDx=0;exitDy=0;exitPerimeter=0;" edge="1" parent="1" source="osszu8AtkkXb-gIpXjJb-2" target="osszu8AtkkXb-gIpXjJb-3">
                    <mxGeometry relative="1" as="geometry">
                        <Array as="points">
                            <mxPoint x="523" y="630"/>
                            <mxPoint x="655" y="630"/>
                        </Array>
                    </mxGeometry>
                </mxCell>
                <mxCell id="16" style="edgeStyle=none;html=1;dashed=1;" edge="1" parent="1" source="osszu8AtkkXb-gIpXjJb-4" target="osszu8AtkkXb-gIpXjJb-6">
                    <mxGeometry relative="1" as="geometry">
                        <Array as="points">
                            <mxPoint x="930" y="320"/>
                            <mxPoint x="815" y="320"/>
                        </Array>
                    </mxGeometry>
                </mxCell>
                <mxCell id="17" style="edgeStyle=none;html=1;dashed=1;" edge="1" parent="1" source="osszu8AtkkXb-gIpXjJb-35" target="osszu8AtkkXb-gIpXjJb-41">
                    <mxGeometry relative="1" as="geometry">
                        <Array as="points">
                            <mxPoint x="780" y="320"/>
                            <mxPoint x="665" y="320"/>
                        </Array>
                    </mxGeometry>
                </mxCell>
                <mxCell id="18" style="edgeStyle=none;html=1;dashed=1;" edge="1" parent="1" source="RYgiZswWqTKI0d0rBJ_1-13" target="RYgiZswWqTKI0d0rBJ_1-8">
                    <mxGeometry relative="1" as="geometry">
                        <Array as="points">
                            <mxPoint x="404" y="320"/>
                            <mxPoint x="85" y="320"/>
                        </Array>
                    </mxGeometry>
                </mxCell>
            </root>
        </mxGraphModel>
    </diagram>
</mxfile>